<svg width="16" height="17" viewBox="0 0 16 17" fill="none" xmlns="http://www.w3.org/2000/svg">
<path d="M7.72251 9.35297C8.64072 9.35297 9.55894 9.32896 10.4722 9.35792C11.5958 9.41538 12.6706 9.83472 13.5363 10.5533C14.4019 11.2719 15.0119 12.2513 15.2752 13.3451C15.4255 14.2147 15.4729 15.0989 15.4164 15.9796C15.4162 16.0551 15.4011 16.1298 15.372 16.1994C15.3429 16.269 15.3003 16.3322 15.2466 16.3853C15.193 16.4384 15.1294 16.4803 15.0595 16.5088C14.9896 16.5372 14.9148 16.5516 14.8394 16.551C14.7619 16.5497 14.6854 16.533 14.6144 16.5019C14.5434 16.4709 14.4792 16.4261 14.4256 16.3702C14.372 16.3143 14.3299 16.2483 14.3019 16.176C14.2739 16.1038 14.2604 16.0267 14.2623 15.9493C14.251 15.5135 14.2496 15.0748 14.2623 14.6383C14.2808 13.6753 13.9568 12.737 13.3481 11.9905C12.7394 11.244 11.8854 10.7379 10.9384 10.5622C10.6859 10.5168 10.43 10.4932 10.1734 10.4916C8.53666 10.4845 6.90036 10.4845 5.26454 10.4916C4.18588 10.4887 3.1502 10.9141 2.38489 11.6742C1.61959 12.4344 1.18722 13.4672 1.18274 14.5458C1.17779 14.9908 1.18274 15.4372 1.18274 15.8822C1.1955 15.9661 1.18993 16.0519 1.1664 16.1335C1.14287 16.2151 1.10194 16.2907 1.04643 16.355C0.990923 16.4193 0.922141 16.4708 0.844827 16.506C0.767514 16.5412 0.683498 16.5593 0.59855 16.5589C0.513603 16.5585 0.429748 16.5398 0.352737 16.5039C0.275725 16.4681 0.207386 16.416 0.152426 16.3512C0.0974657 16.2864 0.0571822 16.2105 0.0343471 16.1287C0.011512 16.0469 0.0066672 15.9611 0.0201423 15.8772C-0.0372314 14.9709 0.0281008 14.0609 0.214375 13.172C0.510103 12.1042 1.13875 11.1586 2.00889 10.4726C2.87903 9.78668 3.9453 9.39618 5.05264 9.35792C5.9426 9.33178 6.83397 9.35297 7.72534 9.35297H7.72251Z" fill="#8D8D8D"/>
<path d="M11.831 4.12065C11.829 4.93322 11.5863 5.72699 11.1335 6.40169C10.6806 7.07638 10.038 7.60173 9.28669 7.91136C8.53542 8.221 7.70922 8.30104 6.91249 8.14137C6.11575 7.9817 5.38421 7.58948 4.81027 7.01426C4.23633 6.43904 3.84575 5.70662 3.68785 4.90953C3.52996 4.11244 3.61183 3.28643 3.92315 2.53585C4.23446 1.78527 4.76125 1.1438 5.43695 0.69245C6.11265 0.241105 6.90696 0.000141969 7.71954 0C8.81035 0.00392011 9.85522 0.439607 10.6257 1.21179C11.3962 1.98398 11.8295 3.02983 11.831 4.12065ZM7.73437 7.06033C8.31679 7.05781 8.88543 6.88297 9.36865 6.55783C9.85187 6.23268 10.228 5.77178 10.4498 5.23321C10.6715 4.69464 10.7288 4.1025 10.6146 3.53138C10.5004 2.96027 10.2196 2.43575 9.80779 2.02391C9.39596 1.61208 8.87143 1.33135 8.30032 1.21711C7.72921 1.10287 7.13707 1.16022 6.5985 1.38194C6.05992 1.60366 5.59903 1.97984 5.27388 2.46305C4.94874 2.94627 4.77389 3.51492 4.77137 4.09734C4.7676 4.48743 4.84164 4.87436 4.98916 5.23551C5.13669 5.59665 5.35474 5.92476 5.63055 6.20065C5.90637 6.47653 6.23443 6.69466 6.59554 6.84227C6.95665 6.98988 7.34356 7.06401 7.73366 7.06033H7.73437Z" fill="#8D8D8D"/>
</svg>
