<svg width="364" height="364" viewBox="0 0 364 364" fill="none" xmlns="http://www.w3.org/2000/svg">
<path d="M326.735 98.5528C333.667 125.58 333.667 182 333.667 182C333.667 182 333.667 238.42 326.735 265.447C322.883 280.386 311.614 292.14 297.342 296.114C271.423 303.333 182 303.333 182 303.333C182 303.333 92.6228 303.333 66.6575 296.114C52.325 292.08 41.0713 280.341 37.2645 265.447C30.3333 238.42 30.3333 182 30.3333 182C30.3333 182 30.3333 125.58 37.2645 98.5528C41.1168 83.6137 52.3856 71.8595 66.6575 67.8858C92.6228 60.6665 182 60.6665 182 60.6665C182 60.6665 271.423 60.6665 297.342 67.8858C311.675 71.9202 322.929 83.6592 326.735 98.5528ZM151.667 235.083L242.667 182L151.667 128.917V235.083Z" fill="#707070"/>
</svg>
