<svg width="364" height="364" viewBox="0 0 364 364" fill="none" xmlns="http://www.w3.org/2000/svg">
<path d="M312.812 159.25C312.812 192.806 301.011 223.519 279.541 245.842C258.07 268.166 232.192 278.688 204.75 278.688C182.711 278.688 166.644 272.716 155.127 265.464L141.761 322.339C140.892 326.1 138.775 329.455 135.753 331.857C132.731 334.259 128.985 335.565 125.125 335.563C123.834 335.561 122.546 335.418 121.286 335.136C119.101 334.633 117.036 333.704 115.21 332.403C113.383 331.101 111.832 329.453 110.643 327.551C109.455 325.65 108.653 323.532 108.283 321.321C107.913 319.109 107.983 316.846 108.489 314.661L153.989 121.286C154.493 119.101 155.423 117.037 156.725 115.212C158.026 113.386 159.675 111.835 161.576 110.647C163.478 109.459 165.594 108.657 167.806 108.286C170.017 107.916 172.279 107.985 174.464 108.489C176.649 108.993 178.713 109.923 180.538 111.225C182.364 112.526 183.915 114.175 185.103 116.076C186.291 117.978 187.093 120.094 187.464 122.306C187.834 124.517 187.765 126.779 187.261 128.964L163.8 228.495C168.777 234.467 180.863 244.563 204.75 244.563C241.15 244.563 278.688 212.713 278.688 159.25C278.674 144.152 275.124 129.266 268.323 115.786C261.523 102.306 251.659 90.6059 239.523 81.6232C227.388 72.6405 213.317 66.6247 198.438 64.0577C183.56 61.4908 168.287 62.444 153.842 66.841C139.398 71.238 126.185 78.9567 115.26 89.3786C104.336 99.8006 96.0034 112.636 90.9314 126.857C85.8593 141.078 84.1882 156.29 86.052 171.273C87.9157 186.256 93.2625 200.594 101.664 213.139C103.107 214.989 104.154 217.116 104.738 219.389C105.321 221.661 105.43 224.029 105.058 226.346C104.685 228.662 103.839 230.877 102.572 232.851C101.304 234.826 99.6436 236.518 97.693 237.821C95.7424 239.125 93.5439 240.012 91.2348 240.428C88.9258 240.844 86.5559 240.779 84.2731 240.237C81.9903 239.695 79.8438 238.689 77.9675 237.28C76.0913 235.871 74.5258 234.091 73.3687 232.05C61.9812 215.076 54.7299 195.669 52.1963 175.387C49.6627 155.104 51.9174 134.51 58.7795 115.257C65.6415 96.0027 76.9201 78.6248 91.7105 64.5166C106.501 50.4084 124.392 39.9625 143.948 34.0167C163.504 28.0708 184.182 26.7905 204.322 30.2785C224.462 33.7664 243.505 41.9254 259.923 54.1013C276.341 66.2771 289.677 82.1309 298.862 100.391C308.047 118.651 312.825 138.81 312.812 159.25Z" fill="#707070"/>
</svg>
