<svg width="364" height="364" viewBox="0 0 364 364" fill="none" xmlns="http://www.w3.org/2000/svg">
<path d="M118.3 30.3335H245.7C294.233 30.3335 333.667 69.7668 333.667 118.3V245.7C333.667 269.03 324.399 291.405 307.902 307.902C291.405 324.399 269.03 333.667 245.7 333.667H118.3C69.7667 333.667 30.3333 294.234 30.3333 245.7V118.3C30.3333 94.97 39.6012 72.5953 56.0982 56.0983C72.5951 39.6014 94.9698 30.3335 118.3 30.3335ZM115.267 60.6668C100.786 60.6668 86.8981 66.4193 76.6586 76.6588C66.4192 86.8983 60.6667 100.786 60.6667 115.267V248.733C60.6667 278.915 85.085 303.334 115.267 303.334H248.733C263.214 303.334 277.102 297.581 287.341 287.342C297.581 277.102 303.333 263.214 303.333 248.733V115.267C303.333 85.0852 278.915 60.6668 248.733 60.6668H115.267ZM261.625 83.4168C266.653 83.4168 271.475 85.4142 275.031 88.9696C278.586 92.525 280.583 97.3471 280.583 102.375C280.583 107.403 278.586 112.225 275.031 115.781C271.475 119.336 266.653 121.333 261.625 121.333C256.597 121.333 251.775 119.336 248.219 115.781C244.664 112.225 242.667 107.403 242.667 102.375C242.667 97.3471 244.664 92.525 248.219 88.9696C251.775 85.4142 256.597 83.4168 261.625 83.4168ZM182 106.167C202.112 106.167 221.401 114.156 235.622 128.378C249.844 142.599 257.833 161.888 257.833 182C257.833 202.112 249.844 221.401 235.622 235.622C221.401 249.844 202.112 257.834 182 257.834C161.888 257.834 142.599 249.844 128.378 235.622C114.156 221.401 106.167 202.112 106.167 182C106.167 161.888 114.156 142.599 128.378 128.378C142.599 114.156 161.888 106.167 182 106.167ZM182 136.5C169.933 136.5 158.36 141.294 149.827 149.827C141.294 158.36 136.5 169.933 136.5 182C136.5 194.068 141.294 205.641 149.827 214.174C158.36 222.706 169.933 227.5 182 227.5C194.067 227.5 205.64 222.706 214.173 214.174C222.706 205.641 227.5 194.068 227.5 182C227.5 169.933 222.706 158.36 214.173 149.827C205.64 141.294 194.067 136.5 182 136.5Z" fill="#707070"/>
</svg>
