<svg width="364" height="364" viewBox="0 0 364 364" fill="none" xmlns="http://www.w3.org/2000/svg">
<path d="M105.263 75.8339C105.259 83.8788 102.06 91.5926 96.3681 97.2783C90.6766 102.964 82.9596 106.156 74.9147 106.152C66.8698 106.148 59.156 102.948 53.4703 97.2569C47.7845 91.5654 44.5925 83.8484 44.5966 75.8035C44.6006 67.7586 47.8003 60.0448 53.4917 54.3591C59.1832 48.6733 66.9002 45.4813 74.9451 45.4854C82.99 45.4894 90.7038 48.6891 96.3895 54.3805C102.075 60.072 105.267 67.789 105.263 75.8339ZM106.173 128.614H45.5066V318.501H106.173V128.614ZM202.027 128.614H141.663V318.501H201.42V218.856C201.42 163.346 273.765 158.189 273.765 218.856V318.501H333.673V198.229C333.673 104.651 226.597 108.139 201.42 154.094L202.027 128.614Z" fill="#707070"/>
</svg>
