<svg width="364" height="364" viewBox="0 0 364 364" fill="none" xmlns="http://www.w3.org/2000/svg">
<path d="M251.767 88.27C241.399 76.4343 235.686 61.2344 235.69 45.5H188.825V233.567C188.464 243.744 184.167 253.384 176.84 260.456C169.513 267.529 159.727 271.482 149.543 271.483C128.007 271.483 110.11 253.89 110.11 232.05C110.11 205.963 135.287 186.398 161.222 194.437V146.51C108.897 139.533 63.0933 180.18 63.0933 232.05C63.0933 282.555 104.953 318.5 149.392 318.5C197.015 318.5 235.69 279.825 235.69 232.05V136.652C254.694 150.299 277.51 157.622 300.907 157.582V110.717C300.907 110.717 272.393 112.082 251.767 88.27Z" fill="#707070"/>
</svg>
